HIERARCHY
ROOT Hips
{
	OFFSET 0.00 0.00 0.00
	CHANNELS 6 Xposition Yposition Zposition Xrotation Yrotation Zrotation
	JOINT Spine
	{
		OFFSET 0.00000 1.72418 2.58627
		CHANNELS 3 Xrotation Yrotation Zrotation
		JOINT Spine1
		{
			OFFSET 0.00000 0.59880 3.39597
			CHANNELS 3 Xrotation Yrotation Zrotation
			JOINT Spine2
			{
				OFFSET 0.00000 0.30055 3.43524
				CHANNELS 3 Xrotation Yrotation Zrotation
				JOINT Spine3
				{
					OFFSET 0.00000 0.00000 3.44836
					CHANNELS 3 Xrotation Yrotation Zrotation
					JOINT Neck
					{
						OFFSET 0.00000 -1.29313 9.05195
						CHANNELS 3 Xrotation Yrotation Zrotation
						JOINT Head
						{
							OFFSET 0.00000 -0.82335 4.66946
							CHANNELS 3 Xrotation Yrotation Zrotation
							End Site
							{
								OFFSET 0.00000 0.00001 5.58203
							}
						}
					}
					JOINT RightShoulder
					{
						OFFSET -1.18828 -1.98046 6.41673
						CHANNELS 3 Xrotation Yrotation Zrotation
						JOINT RightArm
						{
							OFFSET -5.90180 0.00000 0.00000
							CHANNELS 3 Xrotation Yrotation Zrotation
							JOINT RightForeArm
							{
								OFFSET -11.45951 0.00000 0.00000
								CHANNELS 3 Xrotation Yrotation Zrotation
								JOINT RightHand
								{
									OFFSET -10.63451 0.00000 0.00000
									CHANNELS 3 Xrotation Yrotation Zrotation
									JOINT RightHandEnd
									{
										OFFSET -2.86944 0.00000 0.00000
										CHANNELS 3 Xrotation Yrotation Zrotation
										End Site
										{
											OFFSET -2.86944 0.00000 0.00000
										}
									}
									JOINT RightHandThumb1
									{
										OFFSET -1.14778 -1.91296 -0.76518
										CHANNELS 3 Yrotation Xrotation Zrotation
										End Site
										{
											OFFSET -2.77167 -0.74267 0.00000
										}
									}
								}
							}
						}
					}
					JOINT LeftShoulder
					{
						OFFSET 1.18828 -1.98046 6.41673
						CHANNELS 3 Xrotation Yrotation Zrotation
						JOINT LeftArm
						{
							OFFSET 5.90180 0.00000 0.00000
							CHANNELS 3 Xrotation Yrotation Zrotation
							JOINT LeftForeArm
							{
								OFFSET 11.45951 0.00000 0.00000
								CHANNELS 3 Xrotation Yrotation Zrotation
								JOINT LeftHand
								{
									OFFSET 10.63451 0.00000 0.00000
									CHANNELS 3 Xrotation Yrotation Zrotation
									JOINT LeftHandEnd
									{
										OFFSET 2.86944 0.00000 0.00000
										CHANNELS 3 Xrotation Yrotation Zrotation
										End Site
										{
											OFFSET 2.86944 0.00000 0.00000
										}
									}
									JOINT LeftHandThumb1
									{
										OFFSET 1.14778 -1.91296 -0.76518
										CHANNELS 3 Yrotation Xrotation Zrotation
										End Site
										{
											OFFSET 2.77167 -0.74267 0.00000
										}
									}
								}
							}
						}
					}
				}
			}
		}
	}
	JOINT RightUpLeg
	{
		OFFSET -3.52524 0.00000 -1.02984
		CHANNELS 3 Xrotation Yrotation Zrotation
		JOINT RightLeg
		{
			OFFSET 0.00001 0.00000 -17.80965
			CHANNELS 3 Xrotation Yrotation Zrotation
			JOINT RightFoot
			{
				OFFSET 0.00001 0.00000 -17.00908
				CHANNELS 3 Xrotation Yrotation Zrotation
				JOINT RightToeBase
				{
					OFFSET 0.00000 -5.55853 -2.02314
					CHANNELS 3 Xrotation Yrotation Zrotation
					End Site
					{
						OFFSET 0.00000 -2.85188 -0.00000
					}
				}
			}
		}
	}
	JOINT LeftUpLeg
	{
		OFFSET 3.52524 0.00000 -1.02984
		CHANNELS 3 Xrotation Yrotation Zrotation
		JOINT LeftLeg
		{
			OFFSET 0.00001 0.00000 -17.80965
			CHANNELS 3 Xrotation Yrotation Zrotation
			JOINT LeftFoot
			{
				OFFSET 0.00001 0.00000 -17.00908
				CHANNELS 3 Xrotation Yrotation Zrotation
				JOINT LeftToeBase
				{
					OFFSET 0.00000 -5.55853 -2.02314
					CHANNELS 3 Xrotation Yrotation Zrotation
					End Site
					{
						OFFSET 0.00000 -2.85188 -0.00000
					}
				}
			}
		}
	}
}
MOTION
Frames: 12
Frame Time: 0.008342
 1.7260 -101.3767 36.1659 -1.8080 1.5633 -176.1448 1.2480 -1.5915 -0.2059 0.4673 -0.3747 -0.0618 3.7853 -0.0695 1.2072 0.6610 0.0715 0.3084 -0.9841 1.8469 -0.4522 0.3672 1.0080 -2.9356 14.1371 -12.3729 5.1512 12.2527 -46.1566 24.7451 0.0000 0.0000 29.8256 -12.7586 20.0029 0.8586 0.0000 0.0000 0.0000 0.0000 0.0000 0.0000 19.6376 11.0090 -1.6590 34.8224 42.9861 -44.3304 -0.0000 -0.0000 -28.4248 -1.0631 -13.4340 -2.5078 0.0000 -0.0000 -0.0000 0.0000 0.0000 -0.0000 -11.3502 2.2372 -21.7200 22.5998 0.0000 0.0000 -18.4346 -1.9434 0.5347 -6.0281 0.0000 -0.0000 -10.8057 -4.0222 9.7424 21.1629 0.0000 0.0000 -13.1692 7.1006 3.1119 -2.5961 0.0000 -0.0000
 1.7247 -101.3747 36.1679 -1.7793 1.6259 -176.1454 1.2248 -1.5130 -0.2127 0.4570 -0.3555 -0.0585 3.8018 -0.0835 1.1877 0.6650 0.0570 0.3168 -0.9793 1.7999 -0.4794 0.3680 1.0064 -2.9202 14.1180 -12.5232 5.1268 12.2393 -46.0437 24.7342 0.0000 0.0000 29.8382 -12.7634 20.0342 0.9080 0.0000 0.0000 0.0000 -0.0000 -0.0000 0.0000 19.6619 11.0193 -1.6732 34.8878 42.9188 -44.3844 -0.0000 -0.0000 -28.5374 -1.1224 -13.4085 -2.5383 0.0000 -0.0000 0.0000 -0.0000 0.0000 0.0000 -11.3306 2.2921 -21.6704 22.6219 0.0000 0.0000 -18.4322 -1.8629 0.4967 -6.0297 0.0000 -0.0000 -10.7125 -3.9458 9.6814 21.0404 0.0000 0.0000 -13.0988 7.0998 3.1105 -2.5434 0.0000 -0.0000
 1.7235 -101.3711 36.1708 -1.7271 1.7043 -176.1476 1.2101 -1.4155 -0.2209 0.4436 -0.3330 -0.0552 3.8206 -0.0974 1.1651 0.6701 0.0388 0.3277 -0.9697 1.7401 -0.5161 0.3657 1.0054 -2.9003 14.0901 -12.6987 5.0916 12.2282 -45.9329 24.7258 0.0000 0.0000 29.8486 -12.7669 20.0824 0.9676 -0.0000 -0.0000 0.0000 0.0000 -0.0000 -0.0000 19.6829 11.0140 -1.6955 34.9749 42.8602 -44.4476 -0.0000 -0.0000 -28.6845 -1.1841 -13.3813 -2.5742 0.0000 -0.0000 0.0000 0.0000 0.0000 0.0000 -11.2819 2.3581 -21.6174 22.6377 0.0000 0.0000 -18.4247 -1.7568 0.4541 -6.0322 0.0000 -0.0000 -10.5789 -3.8540 9.6056 20.8888 0.0000 0.0000 -13.0067 7.1183 3.1125 -2.4774 0.0000 -0.0000
 1.7224 -101.3668 36.1743 -1.6726 1.7928 -176.1524 1.1810 -1.3055 -0.2294 0.4285 -0.3057 -0.0510 3.8430 -0.1118 1.1396 0.6764 0.0196 0.3408 -0.9564 1.6678 -0.5616 0.3588 1.0044 -2.8754 14.0537 -12.8945 5.0452 12.2211 -45.8328 24.7235 0.0000 0.0000 29.8529 -12.7702 20.1458 1.0366 -0.0000 -0.0000 0.0000 0.0000 -0.0000 -0.0000 19.7067 10.9903 -1.7223 35.0866 42.7983 -44.5340 -0.0000 -0.0000 -28.8566 -1.2548 -13.3619 -2.6165 -0.0000 -0.0000 0.0000 -0.0000 0.0000 -0.0000 -11.2289 2.4303 -21.5583 22.6488 0.0000 0.0000 -18.4109 -1.6264 0.4050 -6.0365 0.0000 -0.0000 -10.4336 -3.7526 9.5179 20.7187 0.0000 0.0000 -12.8960 7.1573 3.1184 -2.3988 0.0000 -0.0000
 1.7214 -101.3612 36.1787 -1.6048 1.8875 -176.1601 1.1510 -1.1883 -0.2384 0.4121 -0.2752 -0.0456 3.8672 -0.1261 1.1123 0.6831 0.0004 0.3541 -0.9389 1.5853 -0.6143 0.3466 1.0049 -2.8462 14.0096 -13.0990 4.9891 12.2189 -45.7577 24.7269 0.0000 0.0000 29.8519 -12.7700 20.2197 1.1079 -0.0000 -0.0000 0.0000 -0.0000 -0.0000 0.0000 19.7383 10.9455 -1.7524 35.2047 42.7468 -44.6352 -0.0000 -0.0000 -29.0512 -1.3192 -13.3430 -2.6627 0.0000 -0.0000 0.0000 -0.0000 0.0000 0.0000 -11.1555 2.5046 -21.4998 22.6488 0.0000 0.0000 -18.3886 -1.4771 0.3560 -6.0460 0.0000 -0.0000 -10.2656 -3.6474 9.4239 20.5334 0.0000 0.0000 -12.7696 7.2169 3.1260 -2.3071 0.0000 -0.0000
 1.7208 -101.3545 36.1837 -1.5301 1.9796 -176.1705 1.1153 -1.0726 -0.2477 0.3945 -0.2431 -0.0402 3.8931 -0.1394 1.0843 0.6911 -0.0185 0.3680 -0.9188 1.4969 -0.6708 0.3284 1.0051 -2.8133 13.9587 -13.3001 4.9243 12.2260 -45.7185 24.7399 0.0000 0.0000 29.8431 -12.7691 20.3000 1.1788 0.0000 0.0000 0.0000 0.0000 0.0000 0.0000 19.7739 10.8801 -1.7856 35.3254 42.7089 -44.7445 -0.0000 -0.0000 -29.2651 -1.3673 -13.3258 -2.7054 0.0000 0.0000 0.0000 0.0000 0.0000 -0.0000 -11.0673 2.5727 -21.4458 22.6342 0.0000 0.0000 -18.3561 -1.3158 0.3101 -6.0627 0.0000 -0.0000 -10.0874 -3.5483 9.3295 20.3427 0.0000 0.0000 -12.6339 7.2945 3.1325 -2.2042 0.0000 -0.0000
 1.7204 -101.3469 36.1892 -1.4544 2.0638 -176.1839 1.0706 -0.9648 -0.2563 0.3763 -0.2113 -0.0355 3.9206 -0.1509 1.0560 0.7003 -0.0354 0.3817 -0.8982 1.4066 -0.7290 0.3043 1.0048 -2.7776 13.9040 -13.4869 4.8535 12.2440 -45.7235 24.7647 0.0000 0.0000 29.8256 -12.7652 20.3808 1.2428 0.0000 -0.0000 0.0000 0.0000 0.0000 -0.0000 19.8106 10.7956 -1.8199 35.4394 42.6893 -44.8540 -0.0000 -0.0000 -29.4931 -1.3902 -13.3073 -2.7410 -0.0000 -0.0000 -0.0000 0.0000 -0.0000 -0.0000 -10.9696 2.6306 -21.3999 22.6038 0.0000 0.0000 -18.3132 -1.1505 0.2716 -6.0882 0.0000 -0.0000 -9.9087 -3.4608 9.2416 20.1542 0.0000 0.0000 -12.4944 7.3855 3.1355 -2.0920 0.0000 -0.0000
 1.7196 -101.3379 36.1954 -1.3632 2.1427 -176.2021 1.0358 -0.8643 -0.2639 0.3573 -0.1815 -0.0301 3.9482 -0.1607 1.0287 0.7097 -0.0496 0.3926 -0.8768 1.3189 -0.7844 0.2745 1.0033 -2.7400 13.8487 -13.6490 4.7804 12.2789 -45.7759 24.8036 0.0000 0.0000 29.8002 -12.7615 20.4552 1.2957 0.0000 0.0000 0.0000 0.0000 0.0000 0.0000 19.8540 10.6957 -1.8537 35.5337 42.6898 -44.9566 -0.0000 -0.0000 -29.7310 -1.3770 -13.2882 -2.7631 0.0000 -0.0000 -0.0000 0.0000 -0.0000 -0.0000 -10.8449 2.6827 -21.3686 22.5566 0.0000 0.0000 -18.2633 -0.9913 0.2495 -6.1228 0.0000 -0.0000 -9.7111 -3.3818 9.1665 19.9647 0.0000 0.0000 -12.3542 7.4838 3.1354 -1.9725 0.0000 -0.0000
 1.7188 -101.3285 36.2018 -1.2811 2.2024 -176.2225 0.9877 -0.7839 -0.2709 0.3385 -0.1550 -0.0261 3.9773 -0.1686 1.0023 0.7202 -0.0606 0.4015 -0.8584 1.2381 -0.8338 0.2388 0.9995 -2.7018 13.7955 -13.7807 4.7085 12.3355 -45.8734 24.8612 0.0000 0.0000 29.7649 -12.7622 20.5174 1.3342 -0.0000 -0.0000 0.0000 0.0000 -0.0000 -0.0000 19.8936 10.5876 -1.8872 35.5982 42.7170 -45.0332 -0.0000 -0.0000 -29.9773 -1.3174 -13.2609 -2.7671 -0.0000 -0.0000 0.0000 -0.0000 0.0000 -0.0000 -10.7201 2.7161 -21.3528 22.4915 0.0000 0.0000 -18.2042 -0.8452 0.2413 -6.1669 0.0000 -0.0000 -9.5300 -3.3251 9.1091 19.7907 0.0000 0.0000 -12.2238 7.5816 3.1271 -1.8478 0.0000 -0.0000
 1.7172 -101.3180 36.2084 -1.1930 2.2492 -176.2468 0.9455 -0.7194 -0.2765 0.3195 -0.1336 -0.0229 4.0071 -0.1740 0.9763 0.7308 -0.0667 0.4073 -0.8434 1.1656 -0.8750 0.1984 0.9937 -2.6626 13.7500 -13.8790 4.6426 12.4194 -46.0088 24.9407 0.0000 0.0000 29.7207 -12.7642 20.5621 1.3537 0.0000 0.0000 -0.0000 0.0000 -0.0000 -0.0000 19.9353 10.4759 -1.9156 35.6281 42.7624 -45.0865 -0.0000 -0.0000 -30.2252 -1.2145 -13.2328 -2.7521 0.0000 0.0000 -0.0000 -0.0000 0.0000 0.0000 -10.5783 2.7394 -21.3585 22.4098 0.0000 0.0000 -18.1412 -0.7207 0.2551 -6.2186 0.0000 -0.0000 -9.3441 -3.2825 9.0732 19.6246 0.0000 0.0000 -12.1046 7.6715 3.1119 -1.7198 0.0000 -0.0000
 1.7146 -101.3067 36.2152 -1.1041 2.2813 -176.2740 0.9062 -0.6723 -0.2809 0.3010 -0.1180 -0.0211 4.0366 -0.1776 0.9515 0.7421 -0.0694 0.4087 -0.8335 1.1063 -0.9040 0.1545 0.9840 -2.6245 13.7156 -13.9414 4.5853 12.5410 -46.1707 25.0516 0.0000 0.0000 29.6654 -12.7768 20.5866 1.3559 -0.0000 -0.0000 -0.0000 -0.0000 -0.0000 0.0000 19.9829 10.3714 -1.9369 35.6123 42.8174 -45.1096 -0.0000 -0.0000 -30.4717 -1.0669 -13.2014 -2.7151 0.0000 0.0000 -0.0000 -0.0000 0.0000 -0.0000 -10.4257 2.7518 -21.3870 22.3133 0.0000 0.0000 -18.0761 -0.6223 0.2907 -6.2746 0.0000 -0.0000 -9.1598 -3.2546 9.0598 19.4687 0.0000 0.0000 -12.0011 7.7458 3.0896 -1.5912 0.0000 -0.0000
 1.7107 -101.2948 36.2219 -1.0215 2.3013 -176.3041 0.8645 -0.6406 -0.2843 0.2823 -0.1073 -0.0205 4.0680 -0.1804 0.9273 0.7532 -0.0681 0.4071 -0.8293 1.0610 -0.9209 0.1076 0.9709 -2.5878 13.6919 -13.9726 4.5402 12.7048 -46.3455 25.1912 0.0000 0.0000 29.6014 -12.7979 20.5846 1.3391 -0.0000 -0.0000 0.0000 -0.0000 -0.0000 -0.0000 20.0142 10.2792 -1.9574 35.5529 42.8987 -45.0761 -0.0000 -0.0000 -30.7223 -0.8723 -13.1635 -2.6575 -0.0000 0.0000 -0.0000 0.0000 -0.0000 0.0000 -10.2723 2.7577 -21.4369 22.2068 0.0000 0.0000 -18.0127 -0.5521 0.3466 -6.3318 0.0000 -0.0000 -8.9836 -3.2364 9.0676 19.3216 0.0000 0.0000 -11.9154 7.7981 3.0619 -1.4625 0.0000 -0.0000
